<svg width="1200" height="420" viewBox="0 0 1200 420" fill="none" xmlns="http://www.w3.org/2000/svg" role="img" aria-labelledby="title desc">
  <title id="title">Impound Lot Operations Illustration</title>
  <desc id="desc">A flat operational scene with impound lanes, vehicles, and status markers.</desc>
  <rect width="1200" height="420" fill="#F6F9FF" />
  <rect x="38" y="42" width="1124" height="336" rx="14" fill="#FFFFFF" stroke="#C8D4E7" stroke-width="2" />
  <rect x="74" y="92" width="1052" height="56" rx="10" fill="#EFF4FF" stroke="#D0DBEC" />
  <rect x="74" y="170" width="1052" height="56" rx="10" fill="#EFF4FF" stroke="#D0DBEC" />
  <rect x="74" y="248" width="1052" height="56" rx="10" fill="#EFF4FF" stroke="#D0DBEC" />
  <rect x="102" y="109" width="88" height="22" rx="6" fill="#1D4ED8" />
  <rect x="102" y="187" width="88" height="22" rx="6" fill="#15803D" />
  <rect x="102" y="265" width="88" height="22" rx="6" fill="#B91C1C" />
  <rect x="218" y="101" width="150" height="38" rx="8" fill="#FFFFFF" stroke="#C8D4E7" />
  <rect x="406" y="101" width="150" height="38" rx="8" fill="#FFFFFF" stroke="#C8D4E7" />
  <rect x="594" y="101" width="150" height="38" rx="8" fill="#FFFFFF" stroke="#C8D4E7" />
  <rect x="782" y="101" width="150" height="38" rx="8" fill="#FFFFFF" stroke="#C8D4E7" />
  <rect x="970" y="101" width="126" height="38" rx="8" fill="#FFFFFF" stroke="#C8D4E7" />
  <rect x="218" y="179" width="150" height="38" rx="8" fill="#FFFFFF" stroke="#C8D4E7" />
  <rect x="406" y="179" width="150" height="38" rx="8" fill="#FFFFFF" stroke="#C8D4E7" />
  <rect x="594" y="179" width="150" height="38" rx="8" fill="#FFFFFF" stroke="#C8D4E7" />
  <rect x="782" y="179" width="150" height="38" rx="8" fill="#FFFFFF" stroke="#C8D4E7" />
  <rect x="970" y="179" width="126" height="38" rx="8" fill="#FFFFFF" stroke="#C8D4E7" />
  <rect x="218" y="257" width="150" height="38" rx="8" fill="#FFFFFF" stroke="#C8D4E7" />
  <rect x="406" y="257" width="150" height="38" rx="8" fill="#FFFFFF" stroke="#C8D4E7" />
  <rect x="594" y="257" width="150" height="38" rx="8" fill="#FFFFFF" stroke="#C8D4E7" />
  <rect x="782" y="257" width="150" height="38" rx="8" fill="#FFFFFF" stroke="#C8D4E7" />
  <rect x="970" y="257" width="126" height="38" rx="8" fill="#FFFFFF" stroke="#C8D4E7" />
  <path d="M259 112H286C289.866 112 293 115.134 293 119V127C293 130.866 289.866 134 286 134H259C255.134 134 252 130.866 252 127V119C252 115.134 255.134 112 259 112Z" fill="#DBEAFE" stroke="#93C5FD"/>
  <circle cx="262" cy="134" r="5" fill="#1E3A8A"/>
  <circle cx="283" cy="134" r="5" fill="#1E3A8A"/>
  <path d="M447 190H474C477.866 190 481 193.134 481 197V205C481 208.866 477.866 212 474 212H447C443.134 212 440 208.866 440 205V197C440 193.134 443.134 190 447 190Z" fill="#DCFCE7" stroke="#86EFAC"/>
  <circle cx="450" cy="212" r="5" fill="#166534"/>
  <circle cx="471" cy="212" r="5" fill="#166534"/>
  <path d="M635 268H662C665.866 268 669 271.134 669 275V283C669 286.866 665.866 290 662 290H635C631.134 290 628 286.866 628 283V275C628 271.134 631.134 268 635 268Z" fill="#FEE2E2" stroke="#FCA5A5"/>
  <circle cx="638" cy="290" r="5" fill="#991B1B"/>
  <circle cx="659" cy="290" r="5" fill="#991B1B"/>
  <rect x="1013" y="110" width="54" height="20" rx="6" fill="#DBEAFE"/>
  <rect x="1013" y="188" width="54" height="20" rx="6" fill="#DCFCE7"/>
  <rect x="1013" y="266" width="54" height="20" rx="6" fill="#FEE2E2"/>
</svg>
